<svg width="501" height="360" viewBox="0 0 501 360" fill="none" xmlns="http://www.w3.org/2000/svg">
<path d="M425.371 360H404.186C403.872 359.447 403.58 358.879 403.31 358.304C400.872 353.231 399.843 347.569 398.857 342.02L397.258 333.009C402.368 336.621 407.476 340.23 412.581 343.837C414.245 345.015 415.946 346.242 417.545 347.569C420.91 350.343 423.816 353.55 424.954 357.623C425.013 357.85 425.071 358.077 425.115 358.304C425.236 358.864 425.322 359.43 425.371 360V360Z" fill="#F0F0F0"/>
<path d="M428.342 358.304C428.343 358.34 428.34 358.375 428.334 358.411C428.263 358.953 428.131 359.486 427.94 360H418.428C418.129 359.455 417.875 358.888 417.669 358.304C417.38 357.525 417.172 356.719 417.049 355.899C416.733 353.115 416.9 350.299 417.545 347.569C417.727 346.682 417.924 345.788 418.122 344.908L419.246 339.885L424.874 348.676C426.757 351.62 428.714 354.863 428.342 358.304Z" fill="#F0F0F0"/>
<path d="M500.275 25.9352H0.725041C0.531311 25.9311 0.346969 25.8533 0.211476 25.7187C0.0759836 25.584 0.000106812 25.4032 0.000106812 25.2148C0.000106812 25.0265 0.0759836 24.8456 0.211476 24.7109C0.346969 24.5763 0.531311 24.4986 0.725041 24.4944H500.275C500.469 24.4986 500.653 24.5763 500.788 24.7109C500.924 24.8456 501 25.0265 501 25.2148C501 25.4032 500.924 25.584 500.788 25.7187C500.653 25.8533 500.469 25.9311 500.275 25.9352V25.9352Z" fill="#CACACA"/>
<path d="M17.0441 15.8493C21.4487 15.8493 25.0195 12.3013 25.0195 7.92465C25.0195 3.54799 21.4487 0 17.0441 0C12.6394 0 9.06866 3.54799 9.06866 7.92465C9.06866 12.3013 12.6394 15.8493 17.0441 15.8493Z" fill="#3F3D56"/>
<path d="M44.5954 15.8493C49.0001 15.8493 52.5708 12.3013 52.5708 7.92465C52.5708 3.54799 49.0001 0 44.5954 0C40.1907 0 36.62 3.54799 36.62 7.92465C36.62 12.3013 40.1907 15.8493 44.5954 15.8493Z" fill="#3F3D56"/>
<path d="M72.1468 15.8493C76.5515 15.8493 80.1222 12.3013 80.1222 7.92465C80.1222 3.54799 76.5515 0 72.1468 0C67.7421 0 64.1714 3.54799 64.1714 7.92465C64.1714 12.3013 67.7421 15.8493 72.1468 15.8493Z" fill="#3F3D56"/>
<path d="M483.768 4.84728H464.192C463.804 4.83896 463.435 4.68351 463.164 4.4142C462.893 4.1449 462.742 3.78315 462.742 3.40643C462.742 3.02971 462.893 2.66796 463.164 2.39865C463.435 2.12935 463.804 1.97389 464.192 1.96558H483.768C484.155 1.97389 484.524 2.12935 484.795 2.39865C485.066 2.66796 485.218 3.02971 485.218 3.40643C485.218 3.78315 485.066 4.1449 484.795 4.4142C484.524 4.68351 484.155 4.83896 483.768 4.84728V4.84728Z" fill="#3F3D56"/>
<path d="M483.768 10.2504H464.192C463.804 10.2421 463.435 10.0866 463.164 9.81733C462.893 9.54802 462.742 9.18627 462.742 8.80955C462.742 8.43283 462.893 8.07109 463.164 7.80179C463.435 7.53248 463.804 7.37703 464.192 7.36871H483.768C484.155 7.37703 484.524 7.53248 484.795 7.80179C485.066 8.07109 485.218 8.43283 485.218 8.80955C485.218 9.18627 485.066 9.54802 484.795 9.81733C484.524 10.0866 484.155 10.2421 483.768 10.2504V10.2504Z" fill="#3F3D56"/>
<path d="M483.768 15.6536H464.192C463.804 15.6453 463.435 15.4898 463.164 15.2205C462.893 14.9512 462.742 14.5895 462.742 14.2128C462.742 13.836 462.893 13.4743 463.164 13.205C463.435 12.9357 463.804 12.7802 464.192 12.7719H483.768C484.155 12.7802 484.524 12.9357 484.795 13.205C485.066 13.4743 485.218 13.836 485.218 14.2128C485.218 14.5895 485.066 14.9512 484.795 15.2205C484.524 15.4898 484.155 15.6453 483.768 15.6536V15.6536Z" fill="#3F3D56"/>
<path d="M426.622 271.025H47.327C43.3196 271.02 39.4776 269.471 36.644 266.717C33.8104 263.962 32.2164 260.228 32.212 256.333V72.8556C32.2165 68.9606 33.8105 65.2263 36.6441 62.4721C39.4778 59.7179 43.3197 58.1687 47.327 58.1643H426.622C430.629 58.1687 434.471 59.7179 437.305 62.4721C440.138 65.2263 441.732 68.9606 441.737 72.8556V256.333C441.732 260.228 440.138 263.962 437.305 266.717C434.471 269.471 430.629 271.02 426.622 271.025V271.025Z" fill="#F0F0F0"/>
<path d="M468.256 321.085H88.9616C84.9542 321.081 81.1123 319.531 78.2786 316.777C75.445 314.023 73.8511 310.289 73.8466 306.393V122.916C73.8511 119.021 75.4451 115.287 78.2787 112.533C81.1124 109.779 84.9543 108.229 88.9616 108.225H468.256C472.264 108.229 476.106 109.779 478.939 112.533C481.773 115.287 483.367 119.021 483.372 122.916V306.393C483.367 310.289 481.773 314.023 478.94 316.777C476.106 319.531 472.264 321.081 468.256 321.085Z" fill="white"/>
<path d="M468.256 321.085H88.9616C84.9542 321.081 81.1123 319.531 78.2786 316.777C75.445 314.023 73.8511 310.289 73.8466 306.393V122.916C73.8511 119.021 75.4451 115.287 78.2787 112.533C81.1124 109.779 84.9543 108.229 88.9616 108.225H468.256C472.264 108.229 476.106 109.779 478.939 112.533C481.773 115.287 483.367 119.021 483.372 122.916V306.393C483.367 310.289 481.773 314.023 478.94 316.777C476.106 319.531 472.264 321.081 468.256 321.085ZM88.9616 110.354C85.5349 110.357 82.2496 111.682 79.8266 114.037C77.4035 116.392 76.0405 119.586 76.0365 122.916V306.393C76.0404 309.724 77.4034 312.917 79.8265 315.273C82.2496 317.628 85.5349 318.953 88.9616 318.956H468.256C471.683 318.953 474.969 317.628 477.392 315.273C479.815 312.917 481.178 309.724 481.182 306.393V122.916C481.178 119.586 479.815 116.392 477.392 114.037C474.968 111.682 471.683 110.357 468.256 110.354H88.9616Z" fill="#E4E4E4"/>
<path d="M118.089 288.962H421.385V238.435C421.339 233.107 420.199 227.842 418.031 222.948C415.863 218.055 412.711 213.631 408.76 209.938L408.678 209.859C403.261 204.576 385.157 191.168 366.426 192.305C356.531 192.904 348.06 197.539 341.248 206.081C320.044 232.681 292.191 223.702 277.475 215.983C264.506 209.178 251.262 205.984 238.107 206.493C219.683 207.193 193.752 213.79 174.84 241.242C167.617 251.718 151.909 265.939 118.089 274.297L118.089 288.962Z" fill="#2B49FE"/>
<path d="M438.546 290.137H118.672C118.407 290.137 118.152 290.035 117.964 289.852C117.777 289.67 117.671 289.422 117.671 289.164V140.145C117.671 139.887 117.777 139.64 117.964 139.457C118.152 139.275 118.407 139.172 118.672 139.172C118.938 139.172 119.192 139.275 119.38 139.457C119.568 139.64 119.673 139.887 119.673 140.145V288.191H438.546C438.811 288.191 439.066 288.294 439.254 288.476C439.441 288.659 439.547 288.906 439.547 289.164C439.547 289.422 439.441 289.67 439.254 289.852C439.066 290.035 438.811 290.137 438.546 290.137V290.137Z" fill="#3F3D56"/>
<path d="M237.438 213.861C240.755 213.861 243.444 211.247 243.444 208.023C243.444 204.799 240.755 202.185 237.438 202.185C234.121 202.185 231.432 204.799 231.432 208.023C231.432 211.247 234.121 213.861 237.438 213.861Z" fill="#3F3D56"/>
<path d="M355.242 198.594C358.559 198.594 361.248 195.98 361.248 192.756C361.248 189.532 358.559 186.918 355.242 186.918C351.925 186.918 349.236 189.532 349.236 192.756C349.236 195.98 351.925 198.594 355.242 198.594Z" fill="#3F3D56"/>
<path d="M296.34 230.082C299.657 230.082 302.346 227.469 302.346 224.244C302.346 221.02 299.657 218.406 296.34 218.406C293.023 218.406 290.334 221.02 290.334 224.244C290.334 227.469 293.023 230.082 296.34 230.082Z" fill="#3F3D56"/>
<path d="M178.536 238.67C181.853 238.67 184.542 236.056 184.542 232.832C184.542 229.608 181.853 226.994 178.536 226.994C175.219 226.994 172.53 229.608 172.53 232.832C172.53 236.056 175.219 238.67 178.536 238.67Z" fill="#3F3D56"/>
<path d="M414.144 219.586C417.461 219.586 420.15 216.973 420.15 213.748C420.15 210.524 417.461 207.91 414.144 207.91C410.827 207.91 408.138 210.524 408.138 213.748C408.138 216.973 410.827 219.586 414.144 219.586Z" fill="#3F3D56"/>
<path d="M483.726 232.112C483.063 231.491 482.548 230.736 482.218 229.901C481.887 229.065 481.749 228.17 481.813 227.277C481.877 226.384 482.142 225.516 482.588 224.733C483.035 223.95 483.653 223.272 484.398 222.747L477.923 201.92L489.071 205.148L493.511 224.43C494.336 225.706 494.651 227.232 494.397 228.718C494.142 230.204 493.335 231.548 492.129 232.495C490.923 233.442 489.401 233.926 487.853 233.855C486.304 233.785 484.836 233.164 483.726 232.112V232.112Z" fill="#9E616A"/>
<path d="M378.612 108.266C378.494 109.154 378.577 110.056 378.857 110.909C379.136 111.762 379.604 112.545 380.228 113.203C380.853 113.861 381.618 114.378 382.47 114.717C383.322 115.057 384.24 115.21 385.16 115.168L393.501 135.357L400.126 126.065L391.19 108.317C391.013 106.82 390.278 105.437 389.123 104.432C387.968 103.426 386.474 102.868 384.924 102.862C383.373 102.855 381.875 103.402 380.711 104.398C379.548 105.394 378.801 106.771 378.612 108.266V108.266Z" fill="#9E616A"/>
<path d="M472.649 351.086H464.969L461.316 322.295L472.65 322.296L472.649 351.086Z" fill="#9E616A"/>
<path d="M474.607 358.321L449.846 358.321V358.016C449.846 355.532 450.861 353.149 452.669 351.392C454.476 349.636 456.927 348.649 459.484 348.648H459.484L474.608 348.649L474.607 358.321Z" fill="#2F2E41"/>
<path d="M447.519 350.849L440.198 348.596L445.654 320.076L456.46 323.401L447.519 350.849Z" fill="#9E616A"/>
<path d="M447.14 358.321L423.533 351.057L423.627 350.767C424.399 348.398 426.107 346.425 428.375 345.28C430.644 344.135 433.288 343.913 435.725 344.663L435.725 344.663L450.143 349.1L447.14 358.321Z" fill="#2F2E41"/>
<path d="M438.424 210.374C438.424 210.374 427.029 227.764 431.056 243.284C435.082 258.805 439.467 288.638 439.467 288.638L461.298 339.137L477.572 338.492L461.411 278.952L462.05 239.142C462.05 239.142 473.282 220.117 471.095 214.194C468.907 208.271 438.424 210.374 438.424 210.374Z" fill="#2F2E41"/>
<path d="M475.649 216.591C475.649 216.591 477.05 233.843 472.666 241.149C468.281 248.455 463.609 276.262 463.609 276.262L456.156 331.877L440.72 326.995L453.883 264.685L464.229 215.671L475.649 216.591Z" fill="#2F2E41"/>
<path d="M481.122 133.08L469.078 125.033L450.749 124.516L444.367 130.598L434.626 135.433L433.724 214.194C433.724 214.194 462.892 227.783 478.584 221.223L486.133 159.869C489.265 147.692 481.122 133.08 481.122 133.08Z" fill="#3F3D56"/>
<path d="M437.073 156.48H404.946L383.839 121.167L397.564 115.883L409.187 135.979L426.01 134.499L436.514 134.005C438.197 133.926 439.878 134.206 441.439 134.824C442.999 135.442 444.402 136.384 445.549 137.584C446.696 138.785 447.559 140.214 448.078 141.772C448.598 143.331 448.76 144.98 448.555 146.606V146.606C448.208 149.33 446.85 151.836 444.735 153.654C442.621 155.472 439.896 156.477 437.073 156.48V156.48Z" fill="#3F3D56"/>
<path d="M461.408 118.03C470.185 118.03 477.3 111.115 477.3 102.584C477.3 94.0531 470.185 87.1376 461.408 87.1376C452.631 87.1376 445.516 94.0531 445.516 102.584C445.516 111.115 452.631 118.03 461.408 118.03Z" fill="#9E616A"/>
<path d="M480.556 99.0696C480.068 95.6785 477.705 92.4587 474.345 91.4313C473.01 87.6635 469.474 84.8895 465.567 83.6803C461.95 82.5591 458.051 82.637 454.484 83.9016C450.917 85.1662 447.882 87.546 445.857 90.6677C445.558 91.1246 444.638 92.247 444.664 92.7923C444.697 93.4847 445.787 94.1997 446.334 94.6362C447.691 95.6556 449.155 96.5335 450.7 97.2556C456.415 100.135 454.512 104.661 454.435 109.789C454.397 112.281 455.253 114.409 457.44 115.832C460.595 117.886 465.11 117.069 468.543 116.245C472.439 115.309 475.677 111.983 477.899 108.776C479.867 105.935 481.044 102.461 480.556 99.0696Z" fill="#2F2E41"/>
<path d="M480.398 152.888L493.873 217.779L474.007 218.836L480.398 152.888Z" fill="#3F3D56"/>
<path d="M494.311 359.149C494.311 359.26 494.289 359.37 494.246 359.473C494.203 359.576 494.139 359.67 494.058 359.749C493.977 359.828 493.881 359.891 493.776 359.934C493.67 359.977 493.557 360 493.442 360H390.295C390.063 360 389.841 359.911 389.678 359.752C389.514 359.593 389.422 359.377 389.422 359.152C389.422 358.927 389.514 358.712 389.678 358.553C389.841 358.394 390.063 358.304 390.295 358.304H493.442C493.672 358.305 493.893 358.394 494.056 358.552C494.219 358.71 494.31 358.925 494.311 359.149V359.149Z" fill="#CACACA"/>
</svg>
